<svg width="16" height="16" viewBox="0 0 16 16" fill="none" xmlns="http://www.w3.org/2000/svg">
<path d="M12.1999 9.97372C11.0999 9.87372 10.4999 11.3737 9.69989 11.7737C8.39989 12.4737 5.99989 9.97372 5.99989 9.97372C5.99989 9.97372 3.49989 7.57372 4.09989 6.27372C4.59989 5.47372 6.09989 4.87372 5.99989 3.77372C5.89989 2.77372 3.69989 -0.826278 2.59989 0.173722C0.199891 2.37372 -0.000108894 3.27372 -0.000108894 5.07372C-0.100109 8.17372 3.89989 12.0737 3.89989 12.0737C4.29989 12.4737 7.79989 16.0737 10.8999 15.9737C12.6999 15.9737 13.5999 15.7737 15.7999 13.3737C16.7999 12.2737 13.2999 10.0737 12.1999 9.97372Z" fill="#607CE6"/>
</svg>
